<svg id="kity_svg_6" xmlns="http://www.w3.org/2000/svg" xmlns:xlink="http://www.w3.org/1999/xlink" version="1.1" width="1102" height="1418" style="background: rgb(251, 251, 251); visibility: visible;" viewBox="0 0 1102 1418"><defs id="kity_defs_7"><linearGradient id="kity_linearGradient_17" x1="0" y1="0" x2="0" y2="1"><stop id="kity_stop_18" offset="0" stop-color="rgb(255, 255, 255)"></stop><stop id="kity_stop_19" offset="1" stop-color="rgb(204, 204, 204)"></stop></linearGradient><marker id="kity_marker_2" orient="auto" refX="6" refY="0" viewBox="-7 -7 14 14" markerWidth="7" markerHeight="7" markerUnits="userSpaceOnUse"><path id="kity_path_3" fill="rgb(115, 191, 118)" stroke="none" d="M6,0A6,6,0,1,1,-6,0A6,6,0,1,1,6,0"></path></marker></defs><g id="kity_g_8"><g id="minder1" text-rendering="optimize-speed"><g id="minder_connect_group1"><path id="kity_path_31" fill="none" stroke="rgb(115, 191, 118)" stroke-width="1" d="M106.00000483542681,725.5000024214387A203.5,653,0,0,1,309.5000048354268,72.5000024214387"></path><path id="kity_path_33" fill="none" stroke="rgb(115, 191, 118)" stroke-width="1" d="M481.5000048354268,72.5000024214387C501.5000048354268,72.5000024214387,501.5000048354268,30.500002421438694,521.5000048354268,30.500002421438694"></path><path id="kity_path_35" fill="none" stroke="rgb(115, 191, 118)" stroke-width="1" d="M481.5000048354268,72.5000024214387C501.5000048354268,72.5000024214387,501.5000048354268,108.5000024214387,521.5000048354268,108.5000024214387"></path><path id="kity_path_37" fill="none" stroke="rgb(115, 191, 118)" stroke-width="1" d="M677.5000048354268,108.5000024214387C697.5000048354268,108.5000024214387,697.5000048354268,82.5000024214387,717.5000048354268,82.5000024214387"></path><path id="kity_path_39" fill="none" stroke="rgb(115, 191, 118)" stroke-width="1" d="M677.5000048354268,108.5000024214387C697.5000048354268,108.5000024214387,697.5000048354268,134.5000024214387,717.5000048354268,134.5000024214387"></path><path id="kity_path_41" fill="none" stroke="rgb(115, 191, 118)" stroke-width="1" d="M106.00000483542681,725.5000024214387A203.5,451,0,0,1,309.5000048354268,274.5000024214387"></path><path id="kity_path_43" fill="none" stroke="rgb(115, 191, 118)" stroke-width="1" d="M461.5000048354268,274.5000024214387C481.5000048354268,274.5000024214387,481.5000048354268,196.5000024214387,501.5000048354268,196.5000024214387"></path><path id="kity_path_45" fill="none" stroke="rgb(115, 191, 118)" stroke-width="1" d="M461.5000048354268,274.5000024214387C481.5000048354268,274.5000024214387,481.5000048354268,274.5000024214387,501.5000048354268,274.5000024214387"></path><path id="kity_path_47" fill="none" stroke="rgb(115, 191, 118)" stroke-width="1" d="M650.5000048354268,274.5000024214387C670.5000048354268,274.5000024214387,670.5000048354268,248.5000024214387,690.5000048354268,248.5000024214387"></path><path id="kity_path_49" fill="none" stroke="rgb(115, 191, 118)" stroke-width="1" d="M650.5000048354268,274.5000024214387C670.5000048354268,274.5000024214387,670.5000048354268,300.5000024214387,690.5000048354268,300.5000024214387"></path><path id="kity_path_51" fill="none" stroke="rgb(115, 191, 118)" stroke-width="1" d="M461.5000048354268,274.5000024214387C481.5000048354268,274.5000024214387,481.5000048354268,352.5000024214387,501.5000048354268,352.5000024214387"></path><path id="kity_path_53" fill="none" stroke="rgb(115, 191, 118)" stroke-width="1" d="M106.00000483542681,725.5000024214387A203.5,233,0,0,1,309.5000048354268,492.5000024214387"></path><path id="kity_path_55" fill="none" stroke="rgb(115, 191, 118)" stroke-width="1" d="M454.5000048354268,492.5000024214387C474.5000048354268,492.5000024214387,474.5000048354268,414.5000024214387,494.5000048354268,414.5000024214387"></path><path id="kity_path_57" fill="none" stroke="rgb(115, 191, 118)" stroke-width="1" d="M454.5000048354268,492.5000024214387C474.5000048354268,492.5000024214387,474.5000048354268,492.5000024214387,494.5000048354268,492.5000024214387"></path><path id="kity_path_59" fill="none" stroke="rgb(115, 191, 118)" stroke-width="1" d="M643.5000048354268,492.5000024214387C663.5000048354268,492.5000024214387,663.5000048354268,466.5000024214387,683.5000048354268,466.5000024214387"></path><path id="kity_path_61" fill="none" stroke="rgb(115, 191, 118)" stroke-width="1" d="M643.5000048354268,492.5000024214387C663.5000048354268,492.5000024214387,663.5000048354268,518.5000024214387,683.5000048354268,518.5000024214387"></path><path id="kity_path_63" fill="none" stroke="rgb(115, 191, 118)" stroke-width="1" d="M454.5000048354268,492.5000024214387C474.5000048354268,492.5000024214387,474.5000048354268,570.5000024214387,494.5000048354268,570.5000024214387"></path><path id="kity_path_65" fill="none" stroke="rgb(115, 191, 118)" stroke-width="1" d="M106.00000483542681,725.5000024214387A203.5,37,0,0,0,309.5000048354268,762.5000024214387"></path><path id="kity_path_67" fill="none" stroke="rgb(115, 191, 118)" stroke-width="1" d="M527.5000048354268,762.5000024214387C547.5000048354268,762.5000024214387,547.5000048354268,632.5000024214387,567.5000048354268,632.5000024214387"></path><path id="kity_path_69" fill="none" stroke="rgb(115, 191, 118)" stroke-width="1" d="M527.5000048354268,762.5000024214387C547.5000048354268,762.5000024214387,547.5000048354268,710.5000024214387,567.5000048354268,710.5000024214387"></path><path id="kity_path_71" fill="none" stroke="rgb(115, 191, 118)" stroke-width="1" d="M623.5000048354268,710.5000024214387C643.5000048354268,710.5000024214387,643.5000048354268,684.5000024214387,663.5000048354268,684.5000024214387"></path><path id="kity_path_73" fill="none" stroke="rgb(115, 191, 118)" stroke-width="1" d="M623.5000048354268,710.5000024214387C643.5000048354268,710.5000024214387,643.5000048354268,736.5000024214387,663.5000048354268,736.5000024214387"></path><path id="kity_path_75" fill="none" stroke="rgb(115, 191, 118)" stroke-width="1" d="M527.5000048354268,762.5000024214387C547.5000048354268,762.5000024214387,547.5000048354268,814.5000024214387,567.5000048354268,814.5000024214387"></path><path id="kity_path_77" fill="none" stroke="rgb(115, 191, 118)" stroke-width="1" d="M716.5000048354268,814.5000024214387C736.5000048354268,814.5000024214387,736.5000048354268,788.5000024214387,756.5000048354268,788.5000024214387"></path><path id="kity_path_79" fill="none" stroke="rgb(115, 191, 118)" stroke-width="1" d="M716.5000048354268,814.5000024214387C736.5000048354268,814.5000024214387,736.5000048354268,840.5000024214387,756.5000048354268,840.5000024214387"></path><path id="kity_path_81" fill="none" stroke="rgb(115, 191, 118)" stroke-width="1" d="M527.5000048354268,762.5000024214387C547.5000048354268,762.5000024214387,547.5000048354268,892.5000024214387,567.5000048354268,892.5000024214387"></path><path id="kity_path_83" fill="none" stroke="rgb(115, 191, 118)" stroke-width="1" d="M106.00000483542681,725.5000024214387A203.5,341,0,0,0,309.5000048354268,1066.5000024214387"></path><path id="kity_path_85" fill="none" stroke="rgb(115, 191, 118)" stroke-width="1" d="M466.5000048354268,1066.5000024214387C486.5000048354268,1066.5000024214387,486.5000048354268,954.5000024214387,506.5000048354268,954.5000024214387"></path><path id="kity_path_87" fill="none" stroke="rgb(115, 191, 118)" stroke-width="1" d="M466.5000048354268,1066.5000024214387C486.5000048354268,1066.5000024214387,486.5000048354268,1032.5000024214387,506.5000048354268,1032.5000024214387"></path><path id="kity_path_89" fill="none" stroke="rgb(115, 191, 118)" stroke-width="1" d="M687.5000048354268,1032.5000024214387C707.5000048354268,1032.5000024214387,707.5000048354268,1006.5000024214387,727.5000048354268,1006.5000024214387"></path><path id="kity_path_91" fill="none" stroke="rgb(115, 191, 118)" stroke-width="1" d="M687.5000048354268,1032.5000024214387C707.5000048354268,1032.5000024214387,707.5000048354268,1058.5000024214387,727.5000048354268,1058.5000024214387"></path><path id="kity_path_93" fill="none" stroke="rgb(115, 191, 118)" stroke-width="1" d="M466.5000048354268,1066.5000024214387C486.5000048354268,1066.5000024214387,486.5000048354268,1114.5000024214387,506.5000048354268,1114.5000024214387"></path><path id="kity_path_95" fill="none" stroke="rgb(115, 191, 118)" stroke-width="1" d="M466.5000048354268,1066.5000024214387C486.5000048354268,1066.5000024214387,486.5000048354268,1174.5000024214387,506.5000048354268,1174.5000024214387"></path><path id="kity_path_97" fill="none" stroke="rgb(115, 191, 118)" stroke-width="1" d="M106.00000483542681,725.5000024214387A203.5,522,0,0,0,309.5000048354268,1247.5000024214387"></path><path id="kity_path_99" fill="none" stroke="rgb(115, 191, 118)" stroke-width="1" d="M106.00000483542681,725.5000024214387A203.5,593,0,0,0,309.5000048354268,1318.5000024214387"></path><path id="kity_path_101" fill="none" stroke="rgb(115, 191, 118)" stroke-width="1" d="M413.5000048354268,1318.5000024214387C433.5000048354268,1318.5000024214387,433.5000048354268,1318.5000024214387,453.5000048354268,1318.5000024214387"></path><path id="kity_path_103" fill="none" stroke="rgb(115, 191, 118)" stroke-width="1" d="M106.00000483542681,725.5000024214387A203.5,659,0,0,0,309.5000048354268,1384.5000024214387"></path><path id="kity_path_105" fill="none" stroke="rgb(115, 191, 118)" stroke-width="1" d="M437.5000048354268,1384.5000024214387C457.5000048354268,1384.5000024214387,457.5000048354268,1384.5000024214387,477.5000048354268,1384.5000024214387"></path></g><g id="minder_node1"><path id="node_outline1" fill="rgb(115, 191, 118)" stroke="rgb(57, 96, 58)" d="M25.500004835426807,705.5000024214387h161a5,5,0,0,1,5,5v30a5,5,0,0,1,-5,5h-161a5,5,0,0,1,-5,-5v-30a5,5,0,0,1,5,-5z" stroke-width="3"></path><g id="node_text1" fill="white"><text id="kity_text_22" text-rendering="inherit" font-size="16" dy=".8em" y="715.1000023856759" x="44.50000483542681">ES5数组新增方法</text></g></g><g id="kity_g_12"><path id="kity_path_13" fill="none" stroke="none" d="M44.50000483542681,725.5000024214387h0v0h0z"></path></g><g id="kity_g_14"><path id="kity_path_15" fill="none" stroke="none" d="M44.50000483542681,725.5000024214387h0v0h0z"></path><path id="kity_path_16" fill="none" stroke="none"></path></g><g id="minder_node2"><g id="node_expander5" style="cursor: pointer;"><path id="kity_path_294" fill="white" stroke="gray" d="M310.5000087097287,72.49999269098043A6,6,0,1,1,298.5000087097287,72.49999269098043A6,6,0,1,1,310.5000087097287,72.49999269098043"></path><path id="kity_path_295" fill="none" stroke="gray" d="M300.0000087097287,72.49999269098043L309.0000087097287,72.49999269098043"></path></g><path id="node_outline6" fill="rgb(238, 246, 238)" stroke="rgb(115, 191, 118)" d="M314.50000911206007,54.499992690980434h164a3,3,0,0,1,3,3v30a3,3,0,0,1,-3,3h-164a3,3,0,0,1,-3,-3v-30a3,3,0,0,1,3,-3z" stroke-width="1"></path><g id="node_text6" fill="black"><text id="kity_text_115" text-rendering="inherit" font-size="14" dy=".8em" y="63.399992659687996" x="331.50000911206007">forEach()</text></g><g id="kity_g_203"><g id="kity_g_204"><path id="kity_path_205" fill="rgb(255, 179, 251)" stroke="none" d="M396.50001008063555,59.49999267607927h65v24h-65z"></path><text id="kity_text_206" text-rendering="geometricPrecision" font-size="12" dy="5" x="404.50001008063555" fill="rgb(77, 0, 73)" y="71.49999267607927">数组遍历</text></g></g></g><g id="minder_node3"><g id="node_expander1" display="none" style="cursor: pointer;"><path id="kity_path_282" fill="white" stroke="gray" d="M521.5000118538737,30.499992065131664A6,6,0,1,1,509.50001185387373,30.499992065131664A6,6,0,1,1,521.5000118538737,30.499992065131664"></path><path id="kity_path_283" fill="none" stroke="gray"></path></g><path id="node_outline2" fill="none" stroke="none" d="M526.5000120922923,19.499992065131664h551a5,5,0,0,1,5,5v12a5,5,0,0,1,-5,5h-551a5,5,0,0,1,-5,-5v-12a5,5,0,0,1,5,-5z"></path><g id="node_text2" fill="black"><text id="kity_text_107" text-rendering="inherit" font-size="12" dy=".8em" y="22.699992038309574" x="531.5000120922923">用于对数组进行遍历，参数为一个回调函数，数组中的每一个元素都会执行一次这个回调，没有返回值</text></g></g><g id="minder_node4"><g id="node_expander4" style="cursor: pointer;"><path id="kity_path_291" fill="white" stroke="gray" d="M521.5000118538737,108.49999322742224A6,6,0,1,1,509.50001185387373,108.49999322742224A6,6,0,1,1,521.5000118538737,108.49999322742224"></path><path id="kity_path_292" fill="none" stroke="gray" d="M511.00001185387373,108.49999322742224L520.0000118538737,108.49999322742224"></path></g><path id="node_outline5" fill="none" stroke="none" d="M526.5000120922923,91.49999322742224h146a5,5,0,0,1,5,5v24a5,5,0,0,1,-5,5h-146a5,5,0,0,1,-5,-5v-24a5,5,0,0,1,5,-5z"></path><g id="node_text5" fill="black"><text id="kity_text_113" text-rendering="inherit" font-size="12" dy=".8em" y="100.69999320060015" x="531.5000120922923">&#xa0;参数 ：function</text></g><g id="kity_g_199"><g id="kity_g_200"><path id="kity_path_201" fill="rgb(255, 244, 179)" stroke="none" d="M627.5000135228038,95.49999321252108h40v24h-40z"></path><text id="kity_text_202" text-rendering="geometricPrecision" font-size="12" dy="5" x="635.5000135228038" fill="rgb(77, 65, 0)" y="107.49999321252108">回调</text></g></g></g><g id="minder_node5"><g id="node_expander2" display="none" style="cursor: pointer;"><path id="kity_path_285" fill="white" stroke="gray" d="M717.5000147745013,82.49999283999205A6,6,0,1,1,705.5000147745013,82.49999283999205A6,6,0,1,1,717.5000147745013,82.49999283999205"></path><path id="kity_path_286" fill="none" stroke="gray"></path></g><path id="node_outline3" fill="none" stroke="none" d="M722.5000150129199,71.49999283999205h132a5,5,0,0,1,5,5v12a5,5,0,0,1,-5,5h-132a5,5,0,0,1,-5,-5v-12a5,5,0,0,1,5,-5z"></path><g id="node_text3" fill="black"><text id="kity_text_109" text-rendering="inherit" font-size="12" dy=".8em" y="74.69999281316996" x="727.5000150129199">参数一：数组元素item</text></g></g><g id="minder_node6"><g id="node_expander3" display="none" style="cursor: pointer;"><path id="kity_path_288" fill="white" stroke="gray" d="M717.5000147745013,134.49999361485243A6,6,0,1,1,705.5000147745013,134.49999361485243A6,6,0,1,1,717.5000147745013,134.49999361485243"></path><path id="kity_path_289" fill="none" stroke="gray"></path></g><path id="node_outline4" fill="none" stroke="none" d="M722.5000150129199,123.49999361485243h137a5,5,0,0,1,5,5v12a5,5,0,0,1,-5,5h-137a5,5,0,0,1,-5,-5v-12a5,5,0,0,1,5,-5z"></path><g id="node_text4" fill="black"><text id="kity_text_111" text-rendering="inherit" font-size="12" dy=".8em" y="126.69999358803034" x="727.5000150129199">参数二：数组索引index</text></g></g><g id="minder_node7"><g id="node_expander11" style="cursor: pointer;"><path id="kity_path_312" fill="white" stroke="gray" d="M310.5000087097287,274.499995701015A6,6,0,1,1,298.5000087097287,274.499995701015A6,6,0,1,1,310.5000087097287,274.499995701015"></path><path id="kity_path_313" fill="none" stroke="gray" d="M300.0000087097287,274.499995701015L309.0000087097287,274.499995701015"></path></g><path id="node_outline12" fill="rgb(238, 246, 238)" stroke="rgb(115, 191, 118)" d="M314.50000911206007,256.499995701015h144a3,3,0,0,1,3,3v30a3,3,0,0,1,-3,3h-144a3,3,0,0,1,-3,-3v-30a3,3,0,0,1,3,-3z" stroke-width="1"></path><g id="node_text12" fill="black"><text id="kity_text_127" text-rendering="inherit" font-size="14" dy=".8em" y="265.39999566972256" x="331.50000911206007">map()</text></g><g id="kity_g_211"><g id="kity_g_212"><path id="kity_path_213" fill="rgb(236, 255, 179)" stroke="none" d="M375.50000976771116,261.49999568611383h66v24h-66z"></path><text id="kity_text_214" text-rendering="geometricPrecision" font-size="12" dy="5" x="383.50000976771116" fill="rgb(57, 77, 0)" y="273.49999568611383">数组处理</text></g></g></g><g id="minder_node8"><g id="node_expander6" display="none" style="cursor: pointer;"><path id="kity_path_297" fill="white" stroke="gray" d="M501.5000115558505,196.49999453872442A6,6,0,1,1,489.5000115558505,196.49999453872442A6,6,0,1,1,501.5000115558505,196.49999453872442"></path><path id="kity_path_298" fill="none" stroke="gray"></path></g><path id="node_outline7" fill="none" stroke="none" d="M506.5000117942691,185.49999453872442h460a5,5,0,0,1,5,5v12a5,5,0,0,1,-5,5h-460a5,5,0,0,1,-5,-5v-12a5,5,0,0,1,5,-5z"></path><g id="node_text7" fill="black"><text id="kity_text_117" text-rendering="inherit" font-size="12" dy=".8em" y="188.69999451190233" x="511.5000117942691">用于对数组中的每一个元素进行处理,都会执行一次回调函数，return 处理好的新数组</text></g></g><g id="minder_node9"><g id="node_expander9" style="cursor: pointer;"><path id="kity_path_306" fill="white" stroke="gray" d="M501.5000115558505,274.499995701015A6,6,0,1,1,489.5000115558505,274.499995701015A6,6,0,1,1,501.5000115558505,274.499995701015"></path><path id="kity_path_307" fill="none" stroke="gray" d="M491.0000115558505,274.499995701015L500.0000115558505,274.499995701015"></path></g><path id="node_outline10" fill="none" stroke="none" d="M506.5000117942691,257.499995701015h139a5,5,0,0,1,5,5v24a5,5,0,0,1,-5,5h-139a5,5,0,0,1,-5,-5v-24a5,5,0,0,1,5,-5z"></path><g id="node_text10" fill="black"><text id="kity_text_123" text-rendering="inherit" font-size="12" dy=".8em" y="266.6999956741929" x="511.5000117942691">参数：function</text></g><g id="kity_g_207"><g id="kity_g_208"><path id="kity_path_209" fill="rgb(255, 244, 179)" stroke="none" d="M600.5000131204724,261.49999568611383h40v24h-40z"></path><text id="kity_text_210" text-rendering="geometricPrecision" font-size="12" dy="5" x="608.5000131204724" fill="rgb(77, 65, 0)" y="273.49999568611383">回调</text></g></g></g><g id="minder_node10"><g id="node_expander7" display="none" style="cursor: pointer;"><path id="kity_path_300" fill="white" stroke="gray" d="M690.50001437217,248.4999953135848A6,6,0,1,1,678.50001437217,248.4999953135848A6,6,0,1,1,690.50001437217,248.4999953135848"></path><path id="kity_path_301" fill="none" stroke="gray"></path></g><path id="node_outline8" fill="none" stroke="none" d="M695.5000146105886,237.4999953135848h132a5,5,0,0,1,5,5v12a5,5,0,0,1,-5,5h-132a5,5,0,0,1,-5,-5v-12a5,5,0,0,1,5,-5z"></path><g id="node_text8" fill="black"><text id="kity_text_119" text-rendering="inherit" font-size="12" dy=".8em" y="240.69999528676271" x="700.5000146105886">参数一：数组元素item</text></g></g><g id="minder_node11"><g id="node_expander8" display="none" style="cursor: pointer;"><path id="kity_path_303" fill="white" stroke="gray" d="M690.50001437217,300.4999960884452A6,6,0,1,1,678.50001437217,300.4999960884452A6,6,0,1,1,690.50001437217,300.4999960884452"></path><path id="kity_path_304" fill="none" stroke="gray"></path></g><path id="node_outline9" fill="none" stroke="none" d="M695.5000146105886,289.4999960884452h137a5,5,0,0,1,5,5v12a5,5,0,0,1,-5,5h-137a5,5,0,0,1,-5,-5v-12a5,5,0,0,1,5,-5z"></path><g id="node_text9" fill="black"><text id="kity_text_121" text-rendering="inherit" font-size="12" dy=".8em" y="292.6999960616231" x="700.5000146105886">参数二：数组索引index</text></g></g><g id="minder_node12"><g id="node_expander10" display="none" style="cursor: pointer;"><path id="kity_path_309" fill="white" stroke="gray" d="M501.5000115558505,352.49999686330557A6,6,0,1,1,489.5000115558505,352.49999686330557A6,6,0,1,1,501.5000115558505,352.49999686330557"></path><path id="kity_path_310" fill="none" stroke="gray"></path></g><path id="node_outline11" fill="none" stroke="none" d="M506.5000117942691,341.49999686330557h144a5,5,0,0,1,5,5v12a5,5,0,0,1,-5,5h-144a5,5,0,0,1,-5,-5v-12a5,5,0,0,1,5,-5z"></path><g id="node_text11" fill="black"><text id="kity_text_125" text-rendering="inherit" font-size="12" dy=".8em" y="344.6999968364835" x="511.5000117942691">返回值：处理好的新数组</text></g></g><g id="minder_node13"><g id="node_expander17" style="cursor: pointer;"><path id="kity_path_330" fill="white" stroke="gray" d="M310.5000087097287,492.49999894946814A6,6,0,1,1,298.5000087097287,492.49999894946814A6,6,0,1,1,310.5000087097287,492.49999894946814"></path><path id="kity_path_331" fill="none" stroke="gray" d="M300.0000087097287,492.49999894946814L309.0000087097287,492.49999894946814"></path></g><path id="node_outline18" fill="rgb(238, 246, 238)" stroke="rgb(115, 191, 118)" d="M314.50000911206007,474.49999894946814h137a3,3,0,0,1,3,3v30a3,3,0,0,1,-3,3h-137a3,3,0,0,1,-3,-3v-30a3,3,0,0,1,3,-3z" stroke-width="1"></path><g id="node_text18" fill="black"><text id="kity_text_139" text-rendering="inherit" font-size="14" dy=".8em" y="483.3999989181757" x="331.50000911206007">filter</text></g><g id="kity_g_219"><g id="kity_g_220"><path id="kity_path_221" fill="rgb(179, 229, 255)" stroke="none" d="M368.50000966340303,479.499998934567h66v24h-66z"></path><text id="kity_text_222" text-rendering="geometricPrecision" font-size="12" dy="5" x="376.50000966340303" fill="rgb(0, 50, 77)" y="491.499998934567">数组过滤</text></g></g></g><g id="minder_node14"><g id="node_expander12" display="none" style="cursor: pointer;"><path id="kity_path_315" fill="white" stroke="gray" d="M494.5000114515424,414.49999778717756A6,6,0,1,1,482.5000114515424,414.49999778717756A6,6,0,1,1,494.5000114515424,414.49999778717756"></path><path id="kity_path_316" fill="none" stroke="gray"></path></g><path id="node_outline13" fill="none" stroke="none" d="M499.50001168996096,403.49999778717756h480a5,5,0,0,1,5,5v12a5,5,0,0,1,-5,5h-480a5,5,0,0,1,-5,-5v-12a5,5,0,0,1,5,-5z"></path><g id="node_text13" fill="black"><text id="kity_text_129" text-rendering="inherit" font-size="12" dy=".8em" y="406.6999977603555" x="504.50001168996096">用于对数组中满足条件的元素进行过滤，返回的使过滤成功的新数组，返回值true或false</text></g></g><g id="minder_node15"><g id="node_expander15" style="cursor: pointer;"><path id="kity_path_324" fill="white" stroke="gray" d="M494.5000114515424,492.49999894946814A6,6,0,1,1,482.5000114515424,492.49999894946814A6,6,0,1,1,494.5000114515424,492.49999894946814"></path><path id="kity_path_325" fill="none" stroke="gray" d="M484.0000114515424,492.49999894946814L493.0000114515424,492.49999894946814"></path></g><path id="node_outline16" fill="none" stroke="none" d="M499.50001168996096,475.49999894946814h139a5,5,0,0,1,5,5v24a5,5,0,0,1,-5,5h-139a5,5,0,0,1,-5,-5v-24a5,5,0,0,1,5,-5z"></path><g id="node_text16" fill="black"><text id="kity_text_135" text-rendering="inherit" font-size="12" dy=".8em" y="484.69999892264605" x="504.50001168996096">参数：function</text></g><g id="kity_g_215"><g id="kity_g_216"><path id="kity_path_217" fill="rgb(255, 244, 179)" stroke="none" d="M593.5000130161643,479.499998934567h40v24h-40z"></path><text id="kity_text_218" text-rendering="geometricPrecision" font-size="12" dy="5" x="601.5000130161643" fill="rgb(77, 65, 0)" y="491.499998934567">回调</text></g></g></g><g id="minder_node16"><g id="node_expander13" display="none" style="cursor: pointer;"><path id="kity_path_318" fill="white" stroke="gray" d="M683.5000142678618,466.49999856203794A6,6,0,1,1,671.5000142678618,466.49999856203794A6,6,0,1,1,683.5000142678618,466.49999856203794"></path><path id="kity_path_319" fill="none" stroke="gray"></path></g><path id="node_outline14" fill="none" stroke="none" d="M688.5000145062804,455.49999856203794h135a5,5,0,0,1,5,5v12a5,5,0,0,1,-5,5h-135a5,5,0,0,1,-5,-5v-12a5,5,0,0,1,5,-5z"></path><g id="node_text14" fill="black"><text id="kity_text_131" text-rendering="inherit" font-size="12" dy=".8em" y="458.69999853521585" x="693.5000145062804">参数一：数组元素item&#xa0;</text></g></g><g id="minder_node17"><g id="node_expander14" display="none" style="cursor: pointer;"><path id="kity_path_321" fill="white" stroke="gray" d="M683.5000142678618,518.4999993368983A6,6,0,1,1,671.5000142678618,518.4999993368983A6,6,0,1,1,683.5000142678618,518.4999993368983"></path><path id="kity_path_322" fill="none" stroke="gray"></path></g><path id="node_outline15" fill="none" stroke="none" d="M688.5000145062804,507.4999993368983h137a5,5,0,0,1,5,5v12a5,5,0,0,1,-5,5h-137a5,5,0,0,1,-5,-5v-12a5,5,0,0,1,5,-5z"></path><g id="node_text15" fill="black"><text id="kity_text_133" text-rendering="inherit" font-size="12" dy=".8em" y="510.69999931007624" x="693.5000145062804">参数二：数组索引index</text></g></g><g id="minder_node18"><g id="node_expander16" display="none" style="cursor: pointer;"><path id="kity_path_327" fill="white" stroke="gray" d="M494.5000114515424,570.5000001117587A6,6,0,1,1,482.5000114515424,570.5000001117587A6,6,0,1,1,494.5000114515424,570.5000001117587"></path><path id="kity_path_328" fill="none" stroke="gray"></path></g><path id="node_outline17" fill="none" stroke="none" d="M499.50001168996096,559.5000001117587h144a5,5,0,0,1,5,5v12a5,5,0,0,1,-5,5h-144a5,5,0,0,1,-5,-5v-12a5,5,0,0,1,5,-5z"></path><g id="node_text17" fill="black"><text id="kity_text_137" text-rendering="inherit" font-size="12" dy=".8em" y="562.7000000849366" x="504.50001168996096">返回值：过滤好的新数组</text></g></g><g id="minder_node19"><g id="node_expander26" style="cursor: pointer;"><path id="kity_path_357" fill="white" stroke="gray" d="M310.5000087097287,762.5000029727817A6,6,0,1,1,298.5000087097287,762.5000029727817A6,6,0,1,1,310.5000087097287,762.5000029727817"></path><path id="kity_path_358" fill="none" stroke="gray" d="M300.0000087097287,762.5000029727817L309.0000087097287,762.5000029727817"></path></g><path id="node_outline27" fill="rgb(238, 246, 238)" stroke="rgb(115, 191, 118)" d="M314.50000911206007,744.5000029727817h210a3,3,0,0,1,3,3v30a3,3,0,0,1,-3,3h-210a3,3,0,0,1,-3,-3v-30a3,3,0,0,1,3,-3z" stroke-width="1"></path><g id="node_text27" fill="black"><text id="kity_text_157" text-rendering="inherit" font-size="14" dy=".8em" y="753.4000029414892" x="331.50000911206007">every()和some()</text></g><g id="kity_g_227"><g id="kity_g_228"><path id="kity_path_229" fill="rgb(179, 255, 226)" stroke="none" d="M441.5000107511878,749.5000029578805h66v24h-66z"></path><text id="kity_text_230" text-rendering="geometricPrecision" font-size="12" dy="5" x="449.5000107511878" fill="rgb(0, 77, 47)" y="761.5000029578805">条件判断</text></g></g></g><g id="minder_node20"><g id="node_expander18" display="none" style="cursor: pointer;"><path id="kity_path_333" fill="white" stroke="gray" d="M567.5000125393271,632.5000010356307A6,6,0,1,1,555.5000125393271,632.5000010356307A6,6,0,1,1,567.5000125393271,632.5000010356307"></path><path id="kity_path_334" fill="none" stroke="gray"></path></g><path id="node_outline19" fill="none" stroke="none" d="M572.5000127777457,621.5000010356307h288a5,5,0,0,1,5,5v12a5,5,0,0,1,-5,5h-288a5,5,0,0,1,-5,-5v-12a5,5,0,0,1,5,-5z"></path><g id="node_text19" fill="black"><text id="kity_text_141" text-rendering="inherit" font-size="12" dy=".8em" y="624.7000010088086" x="577.5000127777457">用于对数组中的元素进行条件判断，返回true或false</text></g></g><g id="minder_node21"><g id="node_expander21" style="cursor: pointer;"><path id="kity_path_342" fill="white" stroke="gray" d="M567.5000125393271,710.5000021979213A6,6,0,1,1,555.5000125393271,710.5000021979213A6,6,0,1,1,567.5000125393271,710.5000021979213"></path><path id="kity_path_343" fill="none" stroke="gray" d="M557.0000125393271,710.5000021979213L566.0000125393271,710.5000021979213"></path></g><path id="node_outline22" fill="none" stroke="none" d="M572.5000127777457,699.5000021979213h46a5,5,0,0,1,5,5v12a5,5,0,0,1,-5,5h-46a5,5,0,0,1,-5,-5v-12a5,5,0,0,1,5,-5z"></path><g id="node_text22" fill="black"><text id="kity_text_147" text-rendering="inherit" font-size="12" dy=".8em" y="702.7000021710992" x="577.5000127777457">区别：</text></g></g><g id="minder_node22"><g id="node_expander19" display="none" style="cursor: pointer;"><path id="kity_path_336" fill="white" stroke="gray" d="M663.5000139698386,684.5000018104911A6,6,0,1,1,651.5000139698386,684.5000018104911A6,6,0,1,1,663.5000139698386,684.5000018104911"></path><path id="kity_path_337" fill="none" stroke="gray"></path></g><path id="node_outline20" fill="none" stroke="none" d="M668.5000142082572,673.5000018104911h261a5,5,0,0,1,5,5v12a5,5,0,0,1,-5,5h-261a5,5,0,0,1,-5,-5v-12a5,5,0,0,1,5,-5z"></path><g id="node_text20" fill="black"><text id="kity_text_143" text-rendering="inherit" font-size="12" dy=".8em" y="676.700001783669" x="673.5000142082572">every:判断数组中的所有数组元素是否满足条件</text></g></g><g id="minder_node23"><g id="node_expander20" display="none" style="cursor: pointer;"><path id="kity_path_339" fill="white" stroke="gray" d="M663.5000139698386,736.5000025853515A6,6,0,1,1,651.5000139698386,736.5000025853515A6,6,0,1,1,663.5000139698386,736.5000025853515"></path><path id="kity_path_340" fill="none" stroke="gray"></path></g><path id="node_outline21" fill="none" stroke="none" d="M668.5000142082572,725.5000025853515h332a5,5,0,0,1,5,5v12a5,5,0,0,1,-5,5h-332a5,5,0,0,1,-5,-5v-12a5,5,0,0,1,5,-5z"></path><g id="node_text21" fill="black"><text id="kity_text_145" text-rendering="inherit" font-size="12" dy=".8em" y="728.7000025585294" x="673.5000142082572">some:判断数组中的元素，只要有一个元素满足条件就满足了</text></g></g><g id="minder_node24"><g id="node_expander24" style="cursor: pointer;"><path id="kity_path_351" fill="white" stroke="gray" d="M567.5000125393271,814.500003747642A6,6,0,1,1,555.5000125393271,814.500003747642A6,6,0,1,1,567.5000125393271,814.500003747642"></path><path id="kity_path_352" fill="none" stroke="gray" d="M557.0000125393271,814.500003747642L566.0000125393271,814.500003747642"></path></g><path id="node_outline25" fill="none" stroke="none" d="M572.5000127777457,797.500003747642h139a5,5,0,0,1,5,5v24a5,5,0,0,1,-5,5h-139a5,5,0,0,1,-5,-5v-24a5,5,0,0,1,5,-5z"></path><g id="node_text25" fill="black"><text id="kity_text_153" text-rendering="inherit" font-size="12" dy=".8em" y="806.70000372082" x="577.5000127777457">参数：function</text></g><g id="kity_g_223"><g id="kity_g_224"><path id="kity_path_225" fill="rgb(255, 244, 179)" stroke="none" d="M666.5000141039491,801.5000037327409h40v24h-40z"></path><text id="kity_text_226" text-rendering="geometricPrecision" font-size="12" dy="5" x="674.5000141039491" fill="rgb(77, 65, 0)" y="813.5000037327409">回调</text></g></g></g><g id="minder_node25"><g id="node_expander22" display="none" style="cursor: pointer;"><path id="kity_path_345" fill="white" stroke="gray" d="M756.5000153556466,788.5000033602118A6,6,0,1,1,744.5000153556466,788.5000033602118A6,6,0,1,1,756.5000153556466,788.5000033602118"></path><path id="kity_path_346" fill="none" stroke="gray"></path></g><path id="node_outline23" fill="none" stroke="none" d="M761.5000155940652,777.5000033602118h135a5,5,0,0,1,5,5v12a5,5,0,0,1,-5,5h-135a5,5,0,0,1,-5,-5v-12a5,5,0,0,1,5,-5z"></path><g id="node_text23" fill="black"><text id="kity_text_149" text-rendering="inherit" font-size="12" dy=".8em" y="780.7000033333898" x="766.5000155940652">参数一：数组元素item&#xa0; </text></g></g><g id="minder_node26"><g id="node_expander23" display="none" style="cursor: pointer;"><path id="kity_path_348" fill="white" stroke="gray" d="M756.5000153556466,840.5000041350722A6,6,0,1,1,744.5000153556466,840.5000041350722A6,6,0,1,1,756.5000153556466,840.5000041350722"></path><path id="kity_path_349" fill="none" stroke="gray"></path></g><path id="node_outline24" fill="none" stroke="none" d="M761.5000155940652,829.5000041350722h137a5,5,0,0,1,5,5v12a5,5,0,0,1,-5,5h-137a5,5,0,0,1,-5,-5v-12a5,5,0,0,1,5,-5z"></path><g id="node_text24" fill="black"><text id="kity_text_151" text-rendering="inherit" font-size="12" dy=".8em" y="832.7000041082501" x="766.5000155940652">参数二：数组索引index</text></g></g><g id="minder_node27"><g id="node_expander25" display="none" style="cursor: pointer;"><path id="kity_path_354" fill="white" stroke="gray" d="M567.5000125393271,892.5000049099326A6,6,0,1,1,555.5000125393271,892.5000049099326A6,6,0,1,1,567.5000125393271,892.5000049099326"></path><path id="kity_path_355" fill="none" stroke="gray"></path></g><path id="node_outline26" fill="none" stroke="none" d="M572.5000127777457,881.5000049099326h121a5,5,0,0,1,5,5v12a5,5,0,0,1,-5,5h-121a5,5,0,0,1,-5,-5v-12a5,5,0,0,1,5,-5z"></path><g id="node_text26" fill="black"><text id="kity_text_155" text-rendering="inherit" font-size="12" dy=".8em" y="884.7000048831105" x="577.5000127777457">返回值：true或false</text></g></g><g id="minder_node28"><g id="node_expander33" style="cursor: pointer;"><path id="kity_path_378" fill="white" stroke="gray" d="M310.5000087097287,1066.5000075027347A6,6,0,1,1,298.5000087097287,1066.5000075027347A6,6,0,1,1,310.5000087097287,1066.5000075027347"></path><path id="kity_path_379" fill="none" stroke="gray" d="M300.0000087097287,1066.5000075027347L309.0000087097287,1066.5000075027347"></path></g><path id="node_outline34" fill="rgb(238, 246, 238)" stroke="rgb(115, 191, 118)" d="M314.50000911206007,1048.5000075027347h149a3,3,0,0,1,3,3v30a3,3,0,0,1,-3,3h-149a3,3,0,0,1,-3,-3v-30a3,3,0,0,1,3,-3z" stroke-width="1"></path><g id="node_text34" fill="black"><text id="kity_text_171" text-rendering="inherit" font-size="14" dy=".8em" y="1057.4000074714422" x="331.50000911206007">reduct</text></g><g id="kity_g_235"><g id="kity_g_236"><path id="kity_path_237" fill="rgb(255, 179, 179)" stroke="none" d="M380.50000984221697,1053.5000074878335h66v24h-66z"></path><text id="kity_text_238" text-rendering="geometricPrecision" font-size="12" dy="5" x="388.50000984221697" fill="rgb(77, 0, 0)" y="1065.5000074878335">数组组合</text></g></g></g><g id="minder_node29"><g id="node_expander27" display="none" style="cursor: pointer;"><path id="kity_path_360" fill="white" stroke="gray" d="M506.5000116303563,954.5000058338046A6,6,0,1,1,494.5000116303563,954.5000058338046A6,6,0,1,1,506.5000116303563,954.5000058338046"></path><path id="kity_path_361" fill="none" stroke="gray"></path></g><path id="node_outline28" fill="none" stroke="none" d="M511.5000118687749,943.5000058338046h168a5,5,0,0,1,5,5v12a5,5,0,0,1,-5,5h-168a5,5,0,0,1,-5,-5v-12a5,5,0,0,1,5,-5z"></path><g id="node_text28" fill="black"><text id="kity_text_159" text-rendering="inherit" font-size="12" dy=".8em" y="946.7000058069825" x="516.5000118687749">作用：把数组的元素进行组合</text></g></g><g id="minder_node30"><g id="node_expander30" style="cursor: pointer;"><path id="kity_path_369" fill="white" stroke="gray" d="M506.5000116303563,1032.5000069960952A6,6,0,1,1,494.5000116303563,1032.5000069960952A6,6,0,1,1,506.5000116303563,1032.5000069960952"></path><path id="kity_path_370" fill="none" stroke="gray" d="M496.0000116303563,1032.5000069960952L505.0000116303563,1032.5000069960952"></path></g><path id="node_outline31" fill="none" stroke="none" d="M511.5000122413039,1015.5000069960952h171a5,5,0,0,1,5,5v24a5,5,0,0,1,-5,5h-171a5,5,0,0,1,-5,-5v-24a5,5,0,0,1,5,-5z"></path><g id="node_text31" fill="black"><text id="kity_text_165" text-rendering="inherit" font-size="12" dy=".8em" y="1024.700006969273" x="541.5000122413039">参数1：function</text></g><g id="node_progress1"><path id="kity_path_188" fill="#FFED83" stroke="none" d="M536.0000120252371,1033.0000070035458A9,9,0,1,1,518.0000120252371,1033.0000070035458A9,9,0,1,1,536.0000120252371,1033.0000070035458"></path><path id="kity_path_189" fill="#43BC00" stroke="none" d="M527.0000120252371,1033.0000070035458L536.0000120252371,1033.0000070035458A9,9,0,0,1,518.0000120252371,1033.0000070035458A9,9,0,0,1,536.0000120252371,1033.0000070035458L527.0000120252371,1033.0000070035458z"></path><path id="kity_path_190" fill="#8E8E8E" stroke="none" d="M527.0000118762255,1026.0000068545341c4.418,0,8,3.582,8,8h1c0,-5.523,-3.477,-10,-9,-10S518.0000118762255,1028.4770068545342,518.0000118762255,1034.0000068545341h1C519.0000118762255,1029.5820068545343,522.5820118762255,1026.0000068545341,527.0000118762255,1026.0000068545341z"></path><path id="kity_path_192" fill="#EEE" stroke="none" d="M532.8120118762255,1030.896006854534l-6.75,6.75l-4.5,-4.5L523.2500118762255,1031.4590068545342l2.812,2.803l5.062,-5.053L532.8120118762255,1030.896006854534z"></path><path id="kity_path_191" fill="url(#kity_linearGradient_17)" stroke="none" d="M527.0000118762255,1023.0000068545341C521.4770118762254,1023.0000068545341,517.0000118762255,1027.4770068545342,517.0000118762255,1033.0000068545341c0,5.523,4.477,10,10,10s10,-4.477,10,-10C537.0000118762255,1027.4770068545342,532.5230118762255,1023.0000068545341,527.0000118762255,1023.0000068545341zM527.0000118762255,1041.0000068545341c-4.418,0,-8,-3.582,-8,-8s3.582,-8,8,-8s8,3.582,8,8S531.4180118762255,1041.0000068545341,527.0000118762255,1041.0000068545341z"></path></g><g id="kity_g_231"><g id="kity_g_232"><path id="kity_path_233" fill="rgb(255, 244, 179)" stroke="none" d="M637.5000136718154,1019.500006981194h40v24h-40z"></path><text id="kity_text_234" text-rendering="geometricPrecision" font-size="12" dy="5" x="645.5000136718154" fill="rgb(77, 65, 0)" y="1031.500006981194">回调</text></g></g></g><g id="minder_node31"><g id="node_expander28" display="none" style="cursor: pointer;"><path id="kity_path_363" fill="white" stroke="gray" d="M727.5000149235129,1006.500006608665A6,6,0,1,1,715.5000149235129,1006.500006608665A6,6,0,1,1,727.5000149235129,1006.500006608665"></path><path id="kity_path_364" fill="none" stroke="gray"></path></g><path id="node_outline29" fill="none" stroke="none" d="M732.5000151619315,995.500006608665h191a5,5,0,0,1,5,5v12a5,5,0,0,1,-5,5h-191a5,5,0,0,1,-5,-5v-12a5,5,0,0,1,5,-5z"></path><g id="node_text29" fill="black"><text id="kity_text_161" text-rendering="inherit" font-size="12" dy=".8em" y="998.7000065818429" x="737.5000151619315">参数一：上一个回调函数的返回值</text></g></g><g id="minder_node32"><g id="node_expander29" display="none" style="cursor: pointer;"><path id="kity_path_366" fill="white" stroke="gray" d="M727.5000149235129,1058.5000073835254A6,6,0,1,1,715.5000149235129,1058.5000073835254A6,6,0,1,1,727.5000149235129,1058.5000073835254"></path><path id="kity_path_367" fill="none" stroke="gray"></path></g><path id="node_outline30" fill="none" stroke="none" d="M732.5000151619315,1047.5000073835254h142a5,5,0,0,1,5,5v12a5,5,0,0,1,-5,5h-142a5,5,0,0,1,-5,-5v-12a5,5,0,0,1,5,-5z"></path><g id="node_text30" fill="black"><text id="kity_text_163" text-rendering="inherit" font-size="12" dy=".8em" y="1050.7000073567033" x="737.5000151619315">参数二：当前的数组元素</text></g></g><g id="minder_node33"><g id="node_expander31" display="none" style="cursor: pointer;"><path id="kity_path_372" fill="white" stroke="gray" d="M506.5000116303563,1114.5000082179904A6,6,0,1,1,494.5000116303563,1114.5000082179904A6,6,0,1,1,506.5000116303563,1114.5000082179904"></path><path id="kity_path_373" fill="none" stroke="gray"></path></g><path id="node_outline32" fill="none" stroke="none" d="M511.5000122413039,1099.5000082179904h235a5,5,0,0,1,5,5v20a5,5,0,0,1,-5,5h-235a5,5,0,0,1,-5,-5v-20a5,5,0,0,1,5,-5z"></path><g id="node_text32" fill="black"><text id="kity_text_167" text-rendering="inherit" font-size="12" dy=".8em" y="1106.7000081911683" x="541.5000122413039">参数2：指定第一个回调函数的返回值</text></g><g id="node_progress2"><path id="kity_path_194" fill="#FFED83" stroke="none" d="M536.0000120252371,1115.000008225441A9,9,0,1,1,518.0000120252371,1115.000008225441A9,9,0,1,1,536.0000120252371,1115.000008225441"></path><path id="kity_path_195" fill="#43BC00" stroke="none" d="M527.0000120252371,1115.000008225441L536.0000120252371,1115.000008225441A9,9,0,0,1,518.0000120252371,1115.000008225441A9,9,0,0,1,536.0000120252371,1115.000008225441L527.0000120252371,1115.000008225441z"></path><path id="kity_path_196" fill="#8E8E8E" stroke="none" d="M527.0000118762255,1108.0000080764294c4.418,0,8,3.582,8,8h1c0,-5.523,-3.477,-10,-9,-10S518.0000118762255,1110.4770080764295,518.0000118762255,1116.0000080764294h1C519.0000118762255,1111.5820080764295,522.5820118762255,1108.0000080764294,527.0000118762255,1108.0000080764294z"></path><path id="kity_path_198" fill="#EEE" stroke="none" d="M532.8120118762255,1112.8960080764293l-6.75,6.75l-4.5,-4.5L523.2500118762255,1113.4590080764294l2.812,2.803l5.062,-5.053L532.8120118762255,1112.8960080764293z"></path><path id="kity_path_197" fill="url(#kity_linearGradient_17)" stroke="none" d="M527.0000118762255,1105.0000080764294C521.4770118762254,1105.0000080764294,517.0000118762255,1109.4770080764295,517.0000118762255,1115.0000080764294c0,5.523,4.477,10,10,10s10,-4.477,10,-10C537.0000118762255,1109.4770080764295,532.5230118762255,1105.0000080764294,527.0000118762255,1105.0000080764294zM527.0000118762255,1123.0000080764294c-4.418,0,-8,-3.582,-8,-8s3.582,-8,8,-8s8,3.582,8,8S531.4180118762255,1123.0000080764294,527.0000118762255,1123.0000080764294z"></path></g></g><g id="minder_node34"><g id="node_expander32" display="none" style="cursor: pointer;"><path id="kity_path_375" fill="white" stroke="gray" d="M506.5000116303563,1174.50000911206A6,6,0,1,1,494.5000116303563,1174.50000911206A6,6,0,1,1,506.5000116303563,1174.50000911206"></path><path id="kity_path_376" fill="none" stroke="gray"></path></g><path id="node_outline33" fill="none" stroke="none" d="M511.5000122413039,1159.50000911206h480a5,5,0,0,1,5,5v20a5,5,0,0,1,-5,5h-480a5,5,0,0,1,-5,-5v-20a5,5,0,0,1,5,-5z"></path><g id="node_text33" fill="black"><text id="kity_text_169" text-rendering="inherit" font-size="12" dy=".8em" y="1166.700009085238" x="541.5000122413039">注意：如果不指定回调函数的返回值，回调的参数一和参数二就是第一和第二个元素</text></g><g id="node_priority1"><path id="kity_path_184" fill="#840023" stroke="none" d="M517.0000118762255,1178.000008970499c0,3.866,3.134,7,7,7h6c3.866,0,7,-3.134,7,-7V1172.000008970499H517.0000118762255V1178.000008970499z"></path><path id="kity_path_185" fill="#FF1200" stroke="none" d="M537.0000118762255,1175.000008970499c0,3.866,-3.134,7,-7,7H524.0000118762255c-3.866,0,-7,-3.134,-7,-7V1172.000008970499c0,-3.866,3.134,-7,7,-7h6c3.866,0,7,3.134,7,7V1175.000008970499z" opacity="0.8"></path><text id="kity_text_186" text-rendering="geometricPrecision" x="526.0000118687749" y="1174.5000089630485" text-anchor="middle" font-style="italic" font-size="12" fill="white" dy="5">1</text></g></g><g id="minder_node35"><g id="node_expander34" display="none" style="cursor: pointer;"><path id="kity_path_381" fill="white" stroke="gray" d="M310.5000087097287,1247.5000101998448A6,6,0,1,1,298.5000087097287,1247.5000101998448A6,6,0,1,1,310.5000087097287,1247.5000101998448"></path><path id="kity_path_382" fill="none" stroke="gray"></path></g><path id="node_outline35" fill="rgb(238, 246, 238)" stroke="rgb(115, 191, 118)" d="M314.50000911206007,1229.5000101998448h473a3,3,0,0,1,3,3v30a3,3,0,0,1,-3,3h-473a3,3,0,0,1,-3,-3v-30a3,3,0,0,1,3,-3z" stroke-width="1"></path><g id="node_text35" fill="black"><text id="kity_text_173" text-rendering="inherit" font-size="14" dy=".8em" y="1238.4000101685524" x="331.50000911206007">reduceRight</text></g><g id="kity_g_239"><g id="kity_g_240"><path id="kity_path_241" fill="rgb(255, 212, 179)" stroke="none" d="M418.5000104084611,1234.5000101849437h352v24h-352z"></path><text id="kity_text_242" text-rendering="geometricPrecision" font-size="12" dy="5" x="426.5000104084611" fill="rgb(77, 33, 0)" y="1246.5000101849437">跟reduceRight相同，唯一的区别就是：它是从右至左进行组合</text></g></g></g><g id="minder_node36"><g id="node_expander36" style="cursor: pointer;"><path id="kity_path_387" fill="white" stroke="gray" d="M310.5000087097287,1318.5000112578273A6,6,0,1,1,298.5000087097287,1318.5000112578273A6,6,0,1,1,310.5000087097287,1318.5000112578273"></path><path id="kity_path_388" fill="none" stroke="gray" d="M300.0000087097287,1318.5000112578273L309.0000087097287,1318.5000112578273"></path></g><path id="node_outline37" fill="rgb(238, 246, 238)" stroke="rgb(115, 191, 118)" d="M314.50000911206007,1305.5000112578273h96a3,3,0,0,1,3,3v20a3,3,0,0,1,-3,3h-96a3,3,0,0,1,-3,-3v-20a3,3,0,0,1,3,-3z" stroke-width="1"></path><g id="node_text37" fill="black"><text id="kity_text_177" text-rendering="inherit" font-size="14" dy=".8em" y="1309.4000112265348" x="331.50000911206007">indexOf()</text></g></g><g id="minder_node37"><g id="node_expander35" display="none" style="cursor: pointer;"><path id="kity_path_384" fill="white" stroke="gray" d="M453.50001084059477,1318.5000112578273A6,6,0,1,1,441.50001084059477,1318.5000112578273A6,6,0,1,1,453.50001084059477,1318.5000112578273"></path><path id="kity_path_385" fill="none" stroke="gray"></path></g><path id="node_outline36" fill="none" stroke="none" d="M458.50001107901335,1307.5000112578273h275a5,5,0,0,1,5,5v12a5,5,0,0,1,-5,5h-275a5,5,0,0,1,-5,-5v-12a5,5,0,0,1,5,-5z"></path><g id="node_text36" fill="black"><text id="kity_text_175" text-rendering="inherit" font-size="12" dy=".8em" y="1310.7000112310052" x="463.50001107901335">返回元素在数组中第一次出现的索引，没有返回-1</text></g></g><g id="minder_node38"><g id="node_expander38" style="cursor: pointer;"><path id="kity_path_393" fill="white" stroke="gray" d="M310.5000087097287,1384.500012241304A6,6,0,1,1,298.5000087097287,1384.500012241304A6,6,0,1,1,310.5000087097287,1384.500012241304"></path><path id="kity_path_394" fill="none" stroke="gray" d="M300.0000087097287,1384.500012241304L309.0000087097287,1384.500012241304"></path></g><path id="node_outline39" fill="rgb(238, 246, 238)" stroke="rgb(115, 191, 118)" d="M314.50000911206007,1371.500012241304h120a3,3,0,0,1,3,3v20a3,3,0,0,1,-3,3h-120a3,3,0,0,1,-3,-3v-20a3,3,0,0,1,3,-3z" stroke-width="1"></path><g id="node_text39" fill="black"><text id="kity_text_181" text-rendering="inherit" font-size="14" dy=".8em" y="1375.4000122100115" x="331.50000911206007">lastIndexOf()</text></g></g><g id="minder_node39"><g id="node_expander37" display="none" style="cursor: pointer;"><path id="kity_path_390" fill="white" stroke="gray" d="M477.50001119822264,1384.500012241304A6,6,0,1,1,465.50001119822264,1384.500012241304A6,6,0,1,1,477.50001119822264,1384.500012241304"></path><path id="kity_path_391" fill="none" stroke="gray"></path></g><path id="node_outline38" fill="none" stroke="none" d="M482.5000114366412,1373.500012241304h287a5,5,0,0,1,5,5v12a5,5,0,0,1,-5,5h-287a5,5,0,0,1,-5,-5v-12a5,5,0,0,1,5,-5z"></path><g id="node_text38" fill="black"><text id="kity_text_179" text-rendering="inherit" font-size="12" dy=".8em" y="1376.7000122144818" x="487.5000114366412">返回元素在数组中最后一次出现的索引，没有返回-1</text></g></g></g></g></svg>