<svg id="kity_svg_6" xmlns="http://www.w3.org/2000/svg" xmlns:xlink="http://www.w3.org/1999/xlink" version="1.1" width="1161" height="509" style="background: rgb(251, 251, 251); visibility: visible;" viewBox="0 0 1161 509"><defs id="kity_defs_7"><linearGradient id="kity_linearGradient_17" x1="0" y1="0" x2="0" y2="1"><stop id="kity_stop_18" offset="0" stop-color="rgb(255, 255, 255)"></stop><stop id="kity_stop_19" offset="1" stop-color="rgb(204, 204, 204)"></stop></linearGradient><marker id="kity_marker_2" orient="auto" refX="6" refY="0" viewBox="-7 -7 14 14" markerWidth="7" markerHeight="7" markerUnits="userSpaceOnUse"><path id="kity_path_3" fill="rgb(123, 115, 191)" stroke="none" d="M6,0A6,6,0,1,1,-6,0A6,6,0,1,1,6,0"></path></marker></defs><g id="kity_g_8"><g id="minder1" text-rendering="optimize-speed"><g id="minder_connect_group1"><path id="kity_path_31" fill="none" stroke="rgb(123, 115, 191)" stroke-width="1" d="M100.00000488013029,278.50000443309546A70.5,195,0,0,1,170.5000048801303,83.50000443309546"></path><path id="kity_path_33" fill="none" stroke="rgb(123, 115, 191)" stroke-width="1" d="M301.5000048801303,83.50000443309546C321.5000048801303,83.50000443309546,321.5000048801303,31.500004433095455,341.5000048801303,31.500004433095455"></path><path id="kity_path_35" fill="none" stroke="rgb(123, 115, 191)" stroke-width="1" d="M301.5000048801303,83.50000443309546C321.5000048801303,83.50000443309546,321.5000048801303,83.50000443309546,341.5000048801303,83.50000443309546"></path><path id="kity_path_37" fill="none" stroke="rgb(123, 115, 191)" stroke-width="1" d="M301.5000048801303,83.50000443309546C321.5000048801303,83.50000443309546,321.5000048801303,135.50000443309546,341.5000048801303,135.50000443309546"></path><path id="kity_path_39" fill="none" stroke="rgb(123, 115, 191)" stroke-width="1" d="M100.00000488013029,278.50000443309546A112.5,29,0,0,1,212.5000048801303,249.50000443309546"></path><path id="kity_path_41" fill="none" stroke="rgb(123, 115, 191)" stroke-width="1" d="M333.5000048801303,249.50000443309546C353.5000048801303,249.50000443309546,353.5000048801303,219.50000443309546,373.5000048801303,219.50000443309546"></path><path id="kity_path_43" fill="none" stroke="rgb(123, 115, 191)" stroke-width="1" d="M333.5000048801303,249.50000443309546C353.5000048801303,249.50000443309546,353.5000048801303,275.50000443309546,373.5000048801303,275.50000443309546"></path><path id="kity_path_45" fill="none" stroke="rgb(123, 115, 191)" stroke-width="1" d="M100.00000488013029,278.50000443309546A89.5,112,0,0,0,189.5000048801303,390.50000443309546"></path><path id="kity_path_47" fill="none" stroke="rgb(123, 115, 191)" stroke-width="1" d="M328.5000048801303,390.50000443309546C348.5000048801303,390.50000443309546,348.5000048801303,360.50000443309546,368.5000048801303,360.50000443309546"></path><path id="kity_path_49" fill="none" stroke="rgb(123, 115, 191)" stroke-width="1" d="M328.5000048801303,390.50000443309546C348.5000048801303,390.50000443309546,348.5000048801303,416.50000443309546,368.5000048801303,416.50000443309546"></path><path id="kity_path_51" fill="none" stroke="rgb(123, 115, 191)" stroke-width="1" d="M100.00000488013029,278.50000443309546A57.5,198,0,0,0,157.5000048801303,476.50000443309546"></path><path id="kity_path_53" fill="none" stroke="rgb(123, 115, 191)" stroke-width="1" d="M290.5000048801303,476.50000443309546C310.5000048801303,476.50000443309546,310.5000048801303,476.50000443309546,330.5000048801303,476.50000443309546"></path></g><g id="minder_node1"><path id="node_outline1" fill="rgb(123, 115, 191)" stroke="rgb(61, 57, 96)" d="M25.50000488013029,258.50000443309546h149a5,5,0,0,1,5,5v30a5,5,0,0,1,-5,5h-149a5,5,0,0,1,-5,-5v-30a5,5,0,0,1,5,-5z" stroke-width="3"></path><g id="node_text1" fill="white"><text id="kity_text_22" text-rendering="inherit" font-size="16" dy=".8em" y="268.10000439733267" x="44.50000488013029">js中的异步函数</text></g></g><g id="kity_g_12"><path id="kity_path_13" fill="none" stroke="none" d="M44.50000488013029,278.50000443309546h0v0h0z"></path></g><g id="kity_g_14"><path id="kity_path_15" fill="none" stroke="none" d="M44.50000488013029,278.50000443309546h0v0h0z"></path><path id="kity_path_16" fill="none" stroke="none"></path></g><g id="minder_node2"><g id="node_expander4" style="cursor: pointer;"><path id="kity_path_110" fill="white" stroke="gray" d="M171.5000066831708,83.50000152736902A6,6,0,1,1,159.5000066831708,83.50000152736902A6,6,0,1,1,171.5000066831708,83.50000152736902"></path><path id="kity_path_111" fill="none" stroke="gray" d="M161.0000066831708,83.50000152736902L170.0000066831708,83.50000152736902"></path></g><path id="node_outline5" fill="rgb(239, 238, 246)" stroke="rgb(123, 115, 191)" d="M175.50000708550215,70.50000152736902h123a3,3,0,0,1,3,3v20a3,3,0,0,1,-3,3h-123a3,3,0,0,1,-3,-3v-20a3,3,0,0,1,3,-3z" stroke-width="1"></path><g id="node_text5" fill="black"><text id="kity_text_61" text-rendering="inherit" font-size="14" dy=".8em" y="74.40000149607658" x="192.50000708550215">setTimeout()&#xa0;</text></g></g><g id="minder_node3"><g id="node_expander1" display="none" style="cursor: pointer;"><path id="kity_path_101" fill="white" stroke="gray" d="M341.5000092163682,31.50000075250864A6,6,0,1,1,329.5000092163682,31.50000075250864A6,6,0,1,1,341.5000092163682,31.50000075250864"></path><path id="kity_path_102" fill="none" stroke="gray"></path></g><path id="node_outline2" fill="none" stroke="none" d="M346.5000094547868,20.50000075250864h758a5,5,0,0,1,5,5v12a5,5,0,0,1,-5,5h-758a5,5,0,0,1,-5,-5v-12a5,5,0,0,1,5,-5z"></path><g id="node_text2" fill="black"><text id="kity_text_55" text-rendering="inherit" font-size="12" dy=".8em" y="23.70000072568655" x="351.5000094547868">setTimeout函数用来指定某个函数或某段代码，在多少毫秒之后执行。它返回一个整数，表示定时器的编号，以后可以用来取消这个定时器。</text></g></g><g id="minder_node4"><g id="node_expander2" display="none" style="cursor: pointer;"><path id="kity_path_104" fill="white" stroke="gray" d="M341.5000092163682,83.50000152736902A6,6,0,1,1,329.5000092163682,83.50000152736902A6,6,0,1,1,341.5000092163682,83.50000152736902"></path><path id="kity_path_105" fill="none" stroke="gray"></path></g><path id="node_outline3" fill="none" stroke="none" d="M346.5000094547868,72.50000152736902h138a5,5,0,0,1,5,5v12a5,5,0,0,1,-5,5h-138a5,5,0,0,1,-5,-5v-12a5,5,0,0,1,5,-5z"></path><g id="node_text3" fill="black"><text id="kity_text_57" text-rendering="inherit" font-size="12" dy=".8em" y="75.70000150054693" x="351.5000094547868">参数1：为一个回调函数</text></g></g><g id="minder_node5"><g id="node_expander3" display="none" style="cursor: pointer;"><path id="kity_path_107" fill="white" stroke="gray" d="M341.5000092163682,135.5000023022294A6,6,0,1,1,329.5000092163682,135.5000023022294A6,6,0,1,1,341.5000092163682,135.5000023022294"></path><path id="kity_path_108" fill="none" stroke="gray"></path></g><path id="node_outline4" fill="none" stroke="none" d="M346.5000094547868,124.5000023022294h125a5,5,0,0,1,5,5v12a5,5,0,0,1,-5,5h-125a5,5,0,0,1,-5,-5v-12a5,5,0,0,1,5,-5z"></path><g id="node_text4" fill="black"><text id="kity_text_59" text-rendering="inherit" font-size="12" dy=".8em" y="127.70000227540731" x="351.5000094547868">参数2：指定延迟时间</text></g></g><g id="minder_node6"><g id="node_expander7" style="cursor: pointer;"><path id="kity_path_119" fill="white" stroke="gray" d="M213.50000730901957,249.50000400096178A6,6,0,1,1,201.50000730901957,249.50000400096178A6,6,0,1,1,213.50000730901957,249.50000400096178"></path><path id="kity_path_120" fill="none" stroke="gray" d="M203.00000730901957,249.50000400096178L212.00000730901957,249.50000400096178"></path></g><path id="node_outline8" fill="rgb(239, 238, 246)" stroke="rgb(123, 115, 191)" d="M217.50000771135092,236.50000400096178h113a3,3,0,0,1,3,3v20a3,3,0,0,1,-3,3h-113a3,3,0,0,1,-3,-3v-20a3,3,0,0,1,3,-3z" stroke-width="1"></path><g id="node_text8" fill="black"><text id="kity_text_67" text-rendering="inherit" font-size="14" dy=".8em" y="240.40000396966934" x="234.50000771135092">setInterval()</text></g></g><g id="minder_node7"><g id="node_expander5" display="none" style="cursor: pointer;"><path id="kity_path_113" fill="white" stroke="gray" d="M373.50000969320536,219.50000355392694A6,6,0,1,1,361.50000969320536,219.50000355392694A6,6,0,1,1,373.50000969320536,219.50000355392694"></path><path id="kity_path_114" fill="none" stroke="gray"></path></g><path id="node_outline6" fill="none" stroke="none" d="M378.50000993162394,208.50000355392694h758a5,5,0,0,1,5,5v12a5,5,0,0,1,-5,5h-758a5,5,0,0,1,-5,-5v-12a5,5,0,0,1,5,-5z"></path><g id="node_text6" fill="black"><text id="kity_text_63" text-rendering="inherit" font-size="12" dy=".8em" y="211.70000352710485" x="383.50000993162394">setInterval函数的用法与setTimeout完全一致，区别仅仅在于setInterval指定某个任务每隔一段时间就执行一次，也就是无限次的定时执行。</text></g></g><g id="minder_node8"><g id="node_expander6" display="none" style="cursor: pointer;"><path id="kity_path_116" fill="white" stroke="gray" d="M373.50000969320536,275.500004388392A6,6,0,1,1,361.50000969320536,275.500004388392A6,6,0,1,1,373.50000969320536,275.500004388392"></path><path id="kity_path_117" fill="none" stroke="gray"></path></g><path id="node_outline7" fill="none" stroke="none" d="M378.50001030415297,260.500004388392h120a5,5,0,0,1,5,5v20a5,5,0,0,1,-5,5h-120a5,5,0,0,1,-5,-5v-20a5,5,0,0,1,5,-5z"></path><g id="node_text7" fill="black"><text id="kity_text_65" text-rendering="inherit" font-size="12" dy=".8em" y="267.7000043615699" x="408.50001030415297">可以无限次执行</text></g><g id="node_priority1"><path id="kity_path_80" fill="#840023" stroke="none" d="M384.0000099390745,279.00000424683094c0,3.866,3.134,7,7,7h6c3.866,0,7,-3.134,7,-7V273.00000424683094H384.0000099390745V279.00000424683094z"></path><path id="kity_path_81" fill="#FF1200" stroke="none" d="M404.0000099390745,276.00000424683094c0,3.866,-3.134,7,-7,7H391.0000099390745c-3.866,0,-7,-3.134,-7,-7V273.00000424683094c0,-3.866,3.134,-7,7,-7h6c3.866,0,7,3.134,7,7V276.00000424683094z" opacity="0.8"></path><text id="kity_text_82" text-rendering="geometricPrecision" x="393.00000993162394" y="275.50000423938036" text-anchor="middle" font-style="italic" font-size="12" fill="white" dy="5">1</text></g></g><g id="minder_node9"><g id="node_expander10" style="cursor: pointer;"><path id="kity_path_128" fill="white" stroke="gray" d="M190.50000696629286,390.5000061020255A6,6,0,1,1,178.50000696629286,390.5000061020255A6,6,0,1,1,190.50000696629286,390.5000061020255"></path><path id="kity_path_129" fill="none" stroke="gray" d="M180.00000696629286,390.5000061020255L189.00000696629286,390.5000061020255"></path></g><path id="node_outline11" fill="rgb(239, 238, 246)" stroke="rgb(123, 115, 191)" d="M194.5000073686242,377.5000061020255h131a3,3,0,0,1,3,3v20a3,3,0,0,1,-3,3h-131a3,3,0,0,1,-3,-3v-20a3,3,0,0,1,3,-3z" stroke-width="1"></path><g id="node_text11" fill="black"><text id="kity_text_73" text-rendering="inherit" font-size="14" dy=".8em" y="381.40000607073307" x="211.5000073686242">clearTimeout()</text></g></g><g id="minder_node10"><g id="node_expander8" display="none" style="cursor: pointer;"><path id="kity_path_122" fill="white" stroke="gray" d="M368.50000961869955,360.5000056549907A6,6,0,1,1,356.50000961869955,360.5000056549907A6,6,0,1,1,368.50000961869955,360.5000056549907"></path><path id="kity_path_123" fill="none" stroke="gray"></path></g><path id="node_outline9" fill="none" stroke="none" d="M373.50000985711813,349.5000056549907h148a5,5,0,0,1,5,5v12a5,5,0,0,1,-5,5h-148a5,5,0,0,1,-5,-5v-12a5,5,0,0,1,5,-5z"></path><g id="node_text9" fill="black"><text id="kity_text_69" text-rendering="inherit" font-size="12" dy=".8em" y="352.7000056281686" x="378.50000985711813">清除setTimeout() 定时器</text></g></g><g id="minder_node11"><g id="node_expander9" display="none" style="cursor: pointer;"><path id="kity_path_125" fill="white" stroke="gray" d="M368.50000961869955,416.5000064894557A6,6,0,1,1,356.50000961869955,416.5000064894557A6,6,0,1,1,368.50000961869955,416.5000064894557"></path><path id="kity_path_126" fill="none" stroke="gray"></path></g><path id="node_outline10" fill="none" stroke="none" d="M373.50001022964716,401.5000064894557h575a5,5,0,0,1,5,5v20a5,5,0,0,1,-5,5h-575a5,5,0,0,1,-5,-5v-20a5,5,0,0,1,5,-5z"></path><g id="node_text10" fill="black"><text id="kity_text_71" text-rendering="inherit" font-size="12" dy=".8em" y="408.7000064626336" x="403.50001022964716">只要使 setTimeout不执行，就等于清除了定时，所以我们一般在满足某个条件的情况下return 结束调</text></g><g id="node_priority2"><path id="kity_path_85" fill="#01467F" stroke="none" d="M379.0000098645687,420.00000634789467c0,3.866,3.134,7,7,7h6c3.866,0,7,-3.134,7,-7V414.00000634789467H379.0000098645687V420.00000634789467z"></path><path id="kity_path_86" fill="#0074FF" stroke="none" d="M399.0000098645687,417.00000634789467c0,3.866,-3.134,7,-7,7H386.0000098645687c-3.866,0,-7,-3.134,-7,-7V414.00000634789467c0,-3.866,3.134,-7,7,-7h6c3.866,0,7,3.134,7,7V417.00000634789467z" opacity="0.8"></path><text id="kity_text_87" text-rendering="geometricPrecision" x="388.00000985711813" y="416.5000063404441" text-anchor="middle" font-style="italic" font-size="12" fill="white" dy="5">2</text></g></g><g id="minder_node12"><g id="node_expander12" style="cursor: pointer;"><path id="kity_path_134" fill="white" stroke="gray" d="M158.5000064894557,476.50000738352537A6,6,0,1,1,146.5000064894557,476.50000738352537A6,6,0,1,1,158.5000064894557,476.50000738352537"></path><path id="kity_path_135" fill="none" stroke="gray" d="M148.0000064894557,476.50000738352537L157.0000064894557,476.50000738352537"></path></g><path id="node_outline13" fill="rgb(239, 238, 246)" stroke="rgb(123, 115, 191)" d="M162.50000689178705,463.50000738352537h125a3,3,0,0,1,3,3v20a3,3,0,0,1,-3,3h-125a3,3,0,0,1,-3,-3v-20a3,3,0,0,1,3,-3z" stroke-width="1"></path><g id="node_text13" fill="black"><text id="kity_text_77" text-rendering="inherit" font-size="14" dy=".8em" y="467.40000735223293" x="179.50000689178705">clearInterval()</text></g></g><g id="minder_node13"><g id="node_expander11" display="none" style="cursor: pointer;"><path id="kity_path_131" fill="white" stroke="gray" d="M330.5000090524554,476.50000738352537A6,6,0,1,1,318.5000090524554,476.50000738352537A6,6,0,1,1,330.5000090524554,476.50000738352537"></path><path id="kity_path_132" fill="none" stroke="gray"></path></g><path id="node_outline12" fill="none" stroke="none" d="M335.500009290874,465.50000738352537h139a5,5,0,0,1,5,5v12a5,5,0,0,1,-5,5h-139a5,5,0,0,1,-5,-5v-12a5,5,0,0,1,5,-5z"></path><g id="node_text12" fill="black"><text id="kity_text_75" text-rendering="inherit" font-size="12" dy=".8em" y="468.7000073567033" x="340.500009290874">清除setInterval()定时器</text></g></g></g></g></svg>